<svg xmlns="http://www.w3.org/2000/svg" xmlns:xlink="http://www.w3.org/1999/xlink" width="24" height="24" viewBox="0 0 24 24" fill="none"><path d="M16.38 6.92C16.3193 6.94513 16.2644 6.96718 16.2 6.98C16.1356 6.99282 16.0657 7 16 7L8 7C7.86739 7 7.74252 6.97073 7.62 6.92C7.49748 6.86927 7.38378 6.80376 7.29 6.71C7.19622 6.61624 7.13076 6.50251 7.08 6.38C7.02924 6.25749 7 6.13261 7 6C7 5.86739 7.02927 5.74252 7.08 5.62C7.13073 5.49748 7.19624 5.38378 7.29 5.29C7.38376 5.19622 7.49749 5.13076 7.62 5.08C7.74251 5.02924 7.86739 5 8 5L16 5C16.0657 5 16.1356 5.00719 16.2 5.02C16.2644 5.03281 16.3193 5.05488 16.38 5.08C16.4407 5.10512 16.5054 5.13353 16.56 5.17C16.6146 5.20647 16.6636 5.24358 16.71 5.29C16.7564 5.33642 16.7935 5.38541 16.83 5.44C16.8665 5.49459 16.8949 5.55934 16.92 5.62C16.9451 5.68066 16.9672 5.73561 16.98 5.8C16.9928 5.86439 17 5.93434 17 6C17 6.06566 16.9928 6.1256 16.98 6.19C16.9672 6.2544 16.9451 6.31933 16.92 6.38C16.8949 6.44067 16.8665 6.5054 16.83 6.56C16.7935 6.6146 16.7564 6.66357 16.71 6.71C16.6636 6.75644 16.6146 6.79351 16.56 6.83C16.5054 6.86649 16.4407 6.89486 16.38 6.92ZM7.08 13.62C7.05487 13.6807 7.03281 13.7356 7.02 13.8C7.00719 13.8644 7 13.9343 7 14C7 14.0657 7.00719 14.1356 7.02 14.2C7.03281 14.2644 7.05487 14.3193 7.08 14.38C7.10513 14.4407 7.13352 14.5054 7.17 14.56C7.20648 14.6146 7.24357 14.6636 7.29 14.71L11.1668 18.5868C11.2017 18.6382 11.2422 18.6861 11.29 18.73C11.3837 18.8159 11.4975 18.8835 11.62 18.93C11.7425 18.9765 11.8675 19 12 19C12.0326 19 12.0647 18.9982 12.0965 18.9948C12.1316 18.9913 12.1666 18.9861 12.2 18.98C12.2644 18.9682 12.3194 18.953 12.38 18.93C12.4406 18.907 12.5054 18.8835 12.56 18.85C12.6146 18.8166 12.6636 18.7725 12.71 18.73C12.7564 18.6874 12.7935 18.64 12.83 18.59L16.71 14.71C16.7564 14.6636 16.7935 14.6146 16.83 14.56C16.8665 14.5054 16.8949 14.4407 16.92 14.38C16.9451 14.3193 16.9672 14.2644 16.98 14.2C16.9928 14.1356 17 14.0657 17 14C17 13.9343 16.9928 13.8644 16.98 13.8C16.9672 13.7356 16.9451 13.6807 16.92 13.62C16.8949 13.5593 16.8665 13.4946 16.83 13.44C16.7935 13.3854 16.7564 13.3364 16.71 13.29C16.6636 13.2436 16.6146 13.2065 16.56 13.17C16.5054 13.1335 16.4407 13.1051 16.38 13.08C16.3193 13.0549 16.2644 13.0328 16.2 13.02C16.1356 13.0072 16.0657 13 16 13C15.9343 13 15.8644 13.0072 15.8 13.02C15.7356 13.0328 15.6807 13.0549 15.62 13.08C15.5593 13.1051 15.4946 13.1335 15.44 13.17C15.3854 13.2065 15.3364 13.2436 15.29 13.29L13 15.587L13 8.92C13 8.85981 12.9928 8.79903 12.98 8.74C12.9672 8.68097 12.9451 8.62561 12.92 8.57C12.8949 8.51439 12.8665 8.46004 12.83 8.41C12.7935 8.35996 12.7564 8.31256 12.71 8.27C12.6636 8.22744 12.6046 8.18343 12.55 8.15C12.4954 8.11657 12.4406 8.09303 12.38 8.07C12.3194 8.04697 12.2544 8.03174 12.19 8.02C12.1256 8.00826 12.0656 8 12 8C11.9344 8 11.8644 8.00825 11.8 8.02C11.7356 8.03175 11.6806 8.04696 11.62 8.07C11.5594 8.09304 11.4946 8.11656 11.44 8.15C11.3854 8.18344 11.3364 8.22744 11.29 8.27C11.2436 8.31256 11.2065 8.35995 11.17 8.41C11.1335 8.46005 11.1051 8.51439 11.08 8.57C11.0549 8.62561 11.0328 8.68097 11.02 8.74C11.0072 8.79903 11 8.85981 11 8.92L11 15.587L8.71 13.29C8.66357 13.2436 8.6146 13.2065 8.56 13.17C8.50541 13.1335 8.44066 13.1051 8.38 13.08C8.31934 13.0549 8.2644 13.0328 8.2 13.02C8.1356 13.0072 8.06566 13 8 13C7.93434 13 7.8644 13.0072 7.8 13.02C7.7356 13.0328 7.68066 13.0549 7.62 13.08C7.55934 13.1051 7.49459 13.1335 7.44 13.17C7.3854 13.2065 7.33643 13.2436 7.29 13.29C7.24357 13.3364 7.20648 13.3854 7.17 13.44C7.13352 13.4946 7.10513 13.5593 7.08 13.62Z" fill-rule="evenodd"  fill="#165DFF" ></path></svg>