<svg xmlns="http://www.w3.org/2000/svg" xmlns:xlink="http://www.w3.org/1999/xlink" width="40" height="40" viewBox="0 0 40 40" fill="none"><g opacity="0"><rect x="0" y="0" width="40" height="40"   fill="#165DFF" ></rect></g><path d="M21.4075 6.24748L21.4075 3.74748C21.4075 3.57561 21.2694 3.43748 21.0975 3.43748L18.9075 3.43748C18.7356 3.43748 18.5975 3.57561 18.5975 3.74748L18.5975 6.24748L4.6875 6.24748C3.99609 6.24748 3.4375 6.80608 3.4375 7.49748L3.4375 27.8175C3.4375 28.5089 3.99609 29.0675 4.6875 29.0675L18.6075 29.0675L18.6075 30.3175L12.1675 34.5375C12.023 34.6312 11.9838 34.823 12.0775 34.9675L13.2675 36.8075L13.2675 36.8175C13.3612 36.962 13.553 36.9912 13.6975 36.8975L19.9975 32.7675L26.2975 36.8975C26.442 36.9912 26.6437 36.962 26.7375 36.8175L26.7375 36.8075L27.9175 34.9675C28.0112 34.823 27.9681 34.6312 27.8275 34.5375L21.4075 30.3275L21.4075 29.0675L35.3175 29.0675C36.0089 29.0675 36.5675 28.5089 36.5675 27.8175L36.5675 7.49748C36.5675 6.80608 36.0089 6.24748 35.3175 6.24748L21.4075 6.24748ZM6.25 9.06248L33.75 9.06248L33.75 26.2525L6.25 26.2525L6.25 9.06248ZM12.6331 23.1087L16.6131 19.1287L19.9731 22.4987C20.0942 22.6198 20.292 22.6198 20.4131 22.4987L29.2531 13.6487C29.3742 13.5276 29.3742 13.3298 29.2531 13.2087L27.8131 11.7687C27.692 11.6476 27.4942 11.6476 27.3731 11.7687L20.1931 18.9587L16.8331 15.5887C16.712 15.4676 16.5142 15.4676 16.3931 15.5887L10.7531 21.2287C10.632 21.3498 10.632 21.5476 10.7531 21.6687L12.1931 23.1087C12.3142 23.2298 12.512 23.2298 12.6331 23.1087Z" fill-rule="evenodd"  fill="#165DFF" ></path></svg>